<svg width="393" height="54" viewBox="0 0 393 54" fill="none" xmlns="http://www.w3.org/2000/svg">
<g clip-path="url(#clip0_291_14419)">
<path fill-rule="evenodd" clip-rule="evenodd" d="M301.664 26.3301H300.664C300.112 26.3301 299.664 26.7778 299.664 27.3301V35.9967C299.664 36.549 300.112 36.9967 300.664 36.9967H301.664C302.216 36.9967 302.664 36.549 302.664 35.9967V27.3301C302.664 26.7778 302.216 26.3301 301.664 26.3301ZM295.997 28.6634H296.997C297.55 28.6634 297.997 29.1111 297.997 29.6634V35.9967C297.997 36.549 297.55 36.9967 296.997 36.9967H295.997C295.445 36.9967 294.997 36.549 294.997 35.9967V29.6634C294.997 29.1111 295.445 28.6634 295.997 28.6634ZM292.331 30.9967H291.331C290.778 30.9967 290.331 31.4445 290.331 31.9967V35.9967C290.331 36.549 290.778 36.9967 291.331 36.9967H292.331C292.883 36.9967 293.331 36.549 293.331 35.9967V31.9967C293.331 31.4445 292.883 30.9967 292.331 30.9967ZM287.664 32.9967H286.664C286.112 32.9967 285.664 33.4445 285.664 33.9967V35.9967C285.664 36.549 286.112 36.9967 286.664 36.9967H287.664C288.216 36.9967 288.664 36.549 288.664 35.9967V33.9967C288.664 33.4445 288.216 32.9967 287.664 32.9967Z" fill="white"/>
<path fill-rule="evenodd" clip-rule="evenodd" d="M316.301 28.6074C318.517 28.6075 320.648 29.4589 322.254 30.9857C322.375 31.1036 322.568 31.1021 322.687 30.9824L323.843 29.8157C323.903 29.755 323.937 29.6728 323.936 29.5872C323.936 29.5016 323.901 29.4198 323.84 29.3597C319.625 25.3202 312.975 25.3202 308.76 29.3597C308.699 29.4197 308.665 29.5015 308.664 29.5871C308.664 29.6727 308.697 29.755 308.757 29.8157L309.914 30.9824C310.033 31.1023 310.226 31.1038 310.347 30.9857C311.953 29.4588 314.085 28.6074 316.301 28.6074ZM316.301 32.4031C317.518 32.403 318.692 32.8555 319.595 33.6727C319.717 33.7887 319.909 33.7862 320.028 33.6671L321.183 32.5004C321.243 32.4392 321.277 32.3562 321.276 32.2699C321.275 32.1837 321.24 32.1014 321.178 32.0414C318.43 29.485 314.174 29.485 311.426 32.0414C311.364 32.1014 311.328 32.1837 311.327 32.27C311.327 32.3563 311.36 32.4393 311.421 32.5004L312.576 33.6671C312.695 33.7862 312.887 33.7887 313.009 33.6727C313.911 32.8561 315.084 32.4036 316.301 32.4031ZM318.614 34.9569C318.615 35.0434 318.581 35.1268 318.52 35.1874L316.522 37.2031C316.464 37.2623 316.384 37.2956 316.301 37.2956C316.217 37.2956 316.138 37.2623 316.079 37.2031L314.081 35.1874C314.02 35.1268 313.986 35.0433 313.987 34.9568C313.989 34.8703 314.027 34.7884 314.091 34.7304C315.367 33.6515 317.235 33.6515 318.51 34.7304C318.575 34.7884 318.612 34.8704 318.614 34.9569Z" fill="white"/>
<path opacity="0.35" d="M332.603 26.8301H349.27C350.466 26.8301 351.437 27.8001 351.437 28.9967V34.9967C351.437 36.1934 350.466 37.1634 349.27 37.1634H332.603C331.407 37.1634 330.437 36.1934 330.437 34.9967V28.9967C330.437 27.8001 331.407 26.8301 332.603 26.8301Z" stroke="white"/>
<path opacity="0.4" d="M352.937 29.9971V33.9971C353.741 33.6583 354.265 32.8702 354.265 31.9971C354.265 31.1239 353.741 30.3358 352.937 29.9971" fill="white"/>
<path d="M331.937 29.6634C331.937 28.927 332.533 28.3301 333.27 28.3301H348.603C349.34 28.3301 349.937 28.927 349.937 29.6634V34.3301C349.937 35.0665 349.34 35.6634 348.603 35.6634H333.27C332.533 35.6634 331.937 35.0665 331.937 34.3301V29.6634Z" fill="white"/>
<path d="M53.3203 38.2568C56.0083 38.2568 57.605 36.1548 57.605 32.5952C57.605 31.2549 57.3486 30.127 56.8579 29.2554C56.1475 27.9004 54.9243 27.168 53.3789 27.168C51.0791 27.168 49.4531 28.7134 49.4531 30.8813C49.4531 32.9175 50.918 34.397 52.9321 34.397C54.1699 34.397 55.1733 33.8184 55.6714 32.8149H55.6934C55.6934 32.8149 55.7227 32.8149 55.73 32.8149C55.7446 32.8149 55.7959 32.8149 55.7959 32.8149C55.7959 35.2319 54.8804 36.6748 53.335 36.6748C52.4268 36.6748 51.7236 36.1768 51.4819 35.3784H49.5996C49.9146 37.1143 51.3867 38.2568 53.3203 38.2568ZM53.3862 32.8955C52.1704 32.8955 51.3062 32.0312 51.3062 30.8228C51.3062 29.6436 52.2144 28.7427 53.3936 28.7427C54.5728 28.7427 55.481 29.6582 55.481 30.8521C55.481 32.0312 54.5947 32.8955 53.3862 32.8955Z" fill="white"/>
<path d="M60.6961 38.1543C61.3919 38.1543 61.868 37.6562 61.868 36.9971C61.868 36.3306 61.3919 35.8398 60.6961 35.8398C60.0076 35.8398 59.5242 36.3306 59.5242 36.9971C59.5242 37.6562 60.0076 38.1543 60.6961 38.1543ZM60.6961 32.6611C61.3919 32.6611 61.868 32.1704 61.868 31.5112C61.868 30.8447 61.3919 30.354 60.6961 30.354C60.0076 30.354 59.5242 30.8447 59.5242 31.5112C59.5242 32.1704 60.0076 32.6611 60.6961 32.6611Z" fill="white"/>
<path d="M68.7237 38.0005H70.5328V36.0303H71.961V34.4336H70.5328V27.4316H67.8668C65.9991 30.2441 64.5123 32.5952 63.5602 34.3457V36.0303H68.7237V38.0005ZM65.3106 34.3677C66.5411 32.1997 67.6397 30.4639 68.6505 28.9697H68.753V34.4775H65.3106V34.3677Z" fill="white"/>
<path d="M75.9896 38.0005H77.8793V27.4316H75.997L73.2357 29.3652V31.1816L75.8651 29.3359H75.9896V38.0005Z" fill="white"/>
</g>
<defs>
<clipPath id="clip0_291_14419">
<rect width="393" height="54" fill="white"/>
</clipPath>
</defs>
</svg>
