<svg width="97" height="96" viewBox="0 0 97 96" fill="none" xmlns="http://www.w3.org/2000/svg">
<path d="M75.8318 55.2171C75.2463 55.6147 74.5627 55.8493 73.8532 55.8962C73.1437 55.9432 72.4345 55.8007 71.8002 55.4838C70.3113 54.6549 69.5089 52.7113 69.5089 50.0627V41.9453C69.5089 38.0485 67.9426 35.276 65.3226 34.5234C60.8946 33.2467 57.5881 38.5916 56.3119 40.6019L48.4807 53.0924V37.8485C48.3937 34.3328 47.2335 32.2272 45.0388 31.5984C43.5886 31.1792 41.4132 31.3507 39.2959 34.5329L21.7869 62.2293C19.4573 57.837 18.2493 52.9513 18.2677 47.9952C18.2677 31.3031 31.8031 17.7264 48.4807 17.7264C65.1582 17.7264 78.742 31.3031 78.742 47.9952V48.081C78.742 48.081 78.742 48.1381 78.742 48.1667C78.9063 51.3965 77.8428 53.969 75.8415 55.2171H75.8318ZM85.5 48.0048V47.8428C85.3646 27.5016 68.8128 11 48.4807 11C28.1485 11 11.5 27.5969 11.5 47.9952C11.5 68.3936 28.0905 85 48.4807 85C57.8325 84.9996 66.8285 81.4672 73.6178 75.1295C74.2769 74.5177 74.6647 73.6745 74.6973 72.7829C74.7298 71.8912 74.4045 71.0228 73.7919 70.3658C73.4987 70.0462 73.1443 69.7869 72.749 69.6028C72.3537 69.4187 71.9255 69.3135 71.4888 69.2931C71.0521 69.2728 70.6156 69.3377 70.2045 69.4842C69.7933 69.6306 69.4157 69.8558 69.0932 70.1466C66.1701 72.8791 62.7169 75.0012 58.9408 76.3857C55.1648 77.7702 51.1438 78.3884 47.1192 78.2033C43.0947 78.0183 39.1496 77.0336 35.5208 75.3086C31.892 73.5836 28.6543 71.1537 26.0022 68.1649L41.7613 43.2029V54.7216C41.7613 60.2571 43.9366 62.0483 45.7639 62.5723C47.5912 63.0963 50.3853 62.7343 53.3147 58.0467L62.0161 44.1652C62.2868 43.7174 62.5478 43.3363 62.7799 43.0028V50.0627C62.7799 55.2361 64.8875 59.3711 68.5807 61.4099C70.2601 62.3033 72.1525 62.735 74.0594 62.6595C75.9663 62.5841 77.8175 62.0044 79.4187 60.9812C83.4794 58.3802 85.6934 53.6736 85.4613 48.0048H85.5Z" fill="#3AFFA3"/>
</svg>
