<svg width="98" height="96" viewBox="0 0 98 96" fill="none" xmlns="http://www.w3.org/2000/svg">
<path fill-rule="evenodd" clip-rule="evenodd" d="M57.2668 37.3369C57.3216 39.0589 56.8838 40.6012 56.0372 42.0604C56.0372 42.0604 56.0608 42.0831 56.124 42.0885C56.4786 41.9122 56.7895 41.7554 57.0586 41.5445C59.3649 39.7376 61.5961 37.8557 63.5717 35.6658C66.5919 32.3178 69.0427 28.6244 70.6596 24.3947C71.4762 22.2586 72.1061 20.0698 72.3683 17.7333C72.0561 17.7864 71.7515 17.8429 71.4517 17.8985C70.811 18.0174 70.1921 18.1323 69.5682 18.2012C66.736 18.5143 63.9427 18.3741 61.2177 17.4268C57.8768 16.2654 55.1379 14.2677 52.8914 11.5366C52.6652 11.2616 52.2064 11.0518 51.8474 11.0387C50.3497 10.9837 48.8482 10.9919 47.3497 11.0347C47.0356 11.0437 46.6629 11.228 46.4296 11.4509C46.043 11.8201 45.6739 12.209 45.305 12.5977C44.7752 13.1559 44.2458 13.7138 43.6655 14.2124C40.3568 17.0556 36.4431 18.3599 32.1447 18.4075C29.8402 18.433 27.562 18.0107 25.3591 17.2619C25.1348 17.1857 24.8235 17.2097 24.6031 17.3053C23.405 17.8253 22.2099 18.3526 21.0149 18.88C19.6925 19.4635 18.3701 20.047 17.0434 20.6206C16.6762 20.7793 16.5195 20.9547 16.4945 21.3672C16.4503 22.0982 16.3892 22.8284 16.3281 23.5586C16.2329 24.6969 16.1378 25.8349 16.1064 26.9749C15.9949 31.0282 16.2258 35.0654 16.7896 39.0867C17.4401 43.727 18.5903 48.225 20.298 52.5851C20.5034 53.1095 20.7681 53.2489 21.2719 53.211C22.1978 53.1413 23.1259 53.0886 24.054 53.036C25.941 52.9289 27.8279 52.8218 29.696 52.5716C34.6676 51.906 39.4824 50.5577 44.1613 48.7257C44.6886 48.5192 44.9369 48.2069 44.9881 47.6513C45.0007 47.515 45.0127 47.3785 45.0247 47.2419C45.0928 46.4685 45.1611 45.6918 45.3319 44.9405C45.4676 44.3435 45.2739 44.0565 44.8498 43.7041C42.5024 41.7534 41.5592 39.1994 42.1655 36.2346C43.0658 31.8321 46.9468 29.352 51.3226 30.2004C54.5407 30.8244 57.1616 34.0316 57.2668 37.3369ZM81.2661 44.4584C81.432 43.6799 81.5991 42.8967 81.7847 42.1114C81.8669 41.5735 81.9549 41.0405 82.0424 40.5107C82.279 39.0775 82.5119 37.6676 82.6146 36.2482C82.7798 33.9661 82.8329 31.6752 82.886 29.3854C82.897 28.9092 82.9081 28.433 82.9201 27.9569C82.9331 27.4436 82.8903 26.929 82.8475 26.4142C82.825 26.1431 82.8024 25.8721 82.788 25.6011C82.7541 24.9636 82.7233 24.326 82.6925 23.6884C82.6687 23.195 82.6448 22.7015 82.6195 22.2082C82.5811 21.4572 82.2313 21.034 81.4888 20.7507C80.2877 20.2924 79.111 19.7693 77.9342 19.2463C77.4676 19.0389 77.0009 18.8315 76.5327 18.6281C76.228 18.4957 75.9241 18.3612 75.6171 18.2252C75.4753 18.1625 75.3329 18.0994 75.1894 18.0361C75.0852 18.5327 74.9895 19.0234 74.8948 19.5087C74.6924 20.5457 74.4948 21.5584 74.2293 22.5528C72.4149 29.3495 68.6956 34.9927 63.7549 39.8774C60.8573 42.7421 57.6485 45.2043 54.155 47.2865C53.7643 47.5194 53.6219 47.7392 53.7152 48.2246C53.8473 48.9114 53.9248 49.6089 54.0023 50.3062C54.0302 50.5576 54.0582 50.8091 54.0887 51.06C54.1669 51.7031 54.241 52.3468 54.3151 52.9906C54.4741 54.3716 54.6332 55.7526 54.8322 57.1278C55.0736 58.7956 54.2963 60.0101 52.7128 60.0554C50.4628 60.1199 48.2095 60.0947 45.9579 60.0696L45.7595 60.0674C44.4888 60.0532 43.0743 58.7543 43.4955 57.1155C43.7701 56.0474 43.8751 54.935 43.9825 53.798C44.0303 53.2909 44.0787 52.7789 44.1427 52.2638C36.8322 55.0476 29.3291 56.4992 21.3562 56.6991C21.8335 57.4907 22.2926 58.2772 22.7466 59.0551C23.7197 60.7222 24.6697 62.3498 25.7263 63.904C31.6681 72.6436 39.6454 79.0305 48.887 83.9095C49.1482 84.0474 49.6251 84.0223 49.8855 83.8709C50.4395 83.5488 50.9962 83.2302 51.553 82.9115C53.4159 81.8452 55.28 80.7782 57.0529 79.5759C68.2111 72.009 76.1997 61.9755 80.1816 48.9186C80.6252 47.4637 80.9437 45.9701 81.2661 44.4584Z" fill="#3AFFA3"/>
</svg>
