<svg width="120" height="120" viewBox="0 0 120 120" fill="none" xmlns="http://www.w3.org/2000/svg">
<mask id="mask0_791_5" style="mask-type:luminance" maskUnits="userSpaceOnUse" x="0" y="0" width="120" height="120">
<path d="M3.63636 36.3637H0V40H3.63636V36.3637Z" fill="white"/>
<path d="M3.63636 61.818H0V65.4544H3.63636V61.818Z" fill="white"/>
<path d="M3.63636 65.4544H0V69.0907H3.63636V65.4544Z" fill="white"/>
<path d="M3.63636 72.7273H0V76.3637H3.63636V72.7273Z" fill="white"/>
<path d="M3.63636 83.6364H0V87.2727H3.63636V83.6364Z" fill="white"/>
<path d="M3.63636 87.2727H0V90.909H3.63636V87.2727Z" fill="white"/>
<path d="M7.27273 32.7273H3.63637V36.3637H7.27273V32.7273Z" fill="white"/>
<path d="M7.27273 36.3637H3.63637V40H7.27273V36.3637Z" fill="white"/>
<path d="M7.27273 47.2727H3.63637V50.909H7.27273V47.2727Z" fill="white"/>
<path d="M7.27273 54.5453H3.63637V58.1817H7.27273V54.5453Z" fill="white"/>
<path d="M7.27273 58.182H3.63637V61.8183H7.27273V58.182Z" fill="white"/>
<path d="M7.27273 61.818H3.63637V65.4544H7.27273V61.818Z" fill="white"/>
<path d="M7.27273 69.091H3.63637V72.7273H7.27273V69.091Z" fill="white"/>
<path d="M10.9091 29.091H7.27271V32.7274H10.9091V29.091Z" fill="white"/>
<path d="M10.9091 36.3637H7.27271V40H10.9091V36.3637Z" fill="white"/>
<path d="M10.9091 47.2727H7.27271V50.909H10.9091V47.2727Z" fill="white"/>
<path d="M10.9091 69.091H7.27271V72.7273H10.9091V69.091Z" fill="white"/>
<path d="M10.9091 76.3636H7.27271V80H10.9091V76.3636Z" fill="white"/>
<path d="M10.9091 83.6364H7.27271V87.2727H10.9091V83.6364Z" fill="white"/>
<path d="M14.5455 36.3637H10.9091V40H14.5455V36.3637Z" fill="white"/>
<path d="M14.5455 50.909H10.9091V54.5454H14.5455V50.909Z" fill="white"/>
<path d="M14.5455 54.5453H10.9091V58.1817H14.5455V54.5453Z" fill="white"/>
<path d="M14.5455 58.182H10.9091V61.8183H14.5455V58.182Z" fill="white"/>
<path d="M14.5455 61.818H10.9091V65.4544H14.5455V61.818Z" fill="white"/>
<path d="M14.5455 65.4544H10.9091V69.0907H14.5455V65.4544Z" fill="white"/>
<path d="M14.5455 69.091H10.9091V72.7273H14.5455V69.091Z" fill="white"/>
<path d="M14.5455 72.7273H10.9091V76.3637H14.5455V72.7273Z" fill="white"/>
<path d="M14.5455 80H10.9091V83.6364H14.5455V80Z" fill="white"/>
<path d="M14.5455 87.2727H10.9091V90.909H14.5455V87.2727Z" fill="white"/>
<path d="M18.1818 29.091H14.5454V32.7274H18.1818V29.091Z" fill="white"/>
<path d="M18.1818 32.7273H14.5454V36.3637H18.1818V32.7273Z" fill="white"/>
<path d="M18.1818 43.6363H14.5454V47.2727H18.1818V43.6363Z" fill="white"/>
<path d="M18.1818 47.2727H14.5454V50.909H18.1818V47.2727Z" fill="white"/>
<path d="M18.1818 54.5453H14.5454V58.1817H18.1818V54.5453Z" fill="white"/>
<path d="M18.1818 61.818H14.5454V65.4544H18.1818V61.818Z" fill="white"/>
<path d="M18.1818 65.4544H14.5454V69.0907H18.1818V65.4544Z" fill="white"/>
<path d="M18.1818 69.091H14.5454V72.7273H18.1818V69.091Z" fill="white"/>
<path d="M18.1818 72.7273H14.5454V76.3637H18.1818V72.7273Z" fill="white"/>
<path d="M18.1818 76.3636H14.5454V80H18.1818V76.3636Z" fill="white"/>
<path d="M18.1818 80H14.5454V83.6364H18.1818V80Z" fill="white"/>
<path d="M18.1818 83.6364H14.5454V87.2727H18.1818V83.6364Z" fill="white"/>
<path d="M18.1818 87.2727H14.5454V90.909H18.1818V87.2727Z" fill="white"/>
<path d="M21.8182 29.091H18.1818V32.7274H21.8182V29.091Z" fill="white"/>
<path d="M21.8182 40H18.1818V43.6364H21.8182V40Z" fill="white"/>
<path d="M21.8182 47.2727H18.1818V50.909H21.8182V47.2727Z" fill="white"/>
<path d="M21.8182 58.182H18.1818V61.8183H21.8182V58.182Z" fill="white"/>
<path d="M21.8182 61.818H18.1818V65.4544H21.8182V61.818Z" fill="white"/>
<path d="M21.8182 69.091H18.1818V72.7273H21.8182V69.091Z" fill="white"/>
<path d="M21.8182 76.3636H18.1818V80H21.8182V76.3636Z" fill="white"/>
<path d="M21.8182 80H18.1818V83.6364H21.8182V80Z" fill="white"/>
<path d="M21.8182 87.2727H18.1818V90.909H21.8182V87.2727Z" fill="white"/>
<path d="M25.4545 29.091H21.8182V32.7274H25.4545V29.091Z" fill="white"/>
<path d="M25.4545 36.3637H21.8182V40H25.4545V36.3637Z" fill="white"/>
<path d="M25.4545 43.6363H21.8182V47.2727H25.4545V43.6363Z" fill="white"/>
<path d="M25.4545 50.909H21.8182V54.5454H25.4545V50.909Z" fill="white"/>
<path d="M25.4545 58.182H21.8182V61.8183H25.4545V58.182Z" fill="white"/>
<path d="M25.4545 65.4544H21.8182V69.0907H25.4545V65.4544Z" fill="white"/>
<path d="M25.4545 72.7273H21.8182V76.3637H25.4545V72.7273Z" fill="white"/>
<path d="M25.4545 80H21.8182V83.6364H25.4545V80Z" fill="white"/>
<path d="M25.4545 87.2727H21.8182V90.909H25.4545V87.2727Z" fill="white"/>
<path d="M29.0909 32.7273H25.4545V36.3637H29.0909V32.7273Z" fill="white"/>
<path d="M29.0909 36.3637H25.4545V40H29.0909V36.3637Z" fill="white"/>
<path d="M29.0909 43.6363H25.4545V47.2727H29.0909V43.6363Z" fill="white"/>
<path d="M29.0909 50.909H25.4545V54.5454H29.0909V50.909Z" fill="white"/>
<path d="M29.0909 61.818H25.4545V65.4544H29.0909V61.818Z" fill="white"/>
<path d="M29.0909 76.3636H25.4545V80H29.0909V76.3636Z" fill="white"/>
<path d="M29.0909 80H25.4545V83.6364H29.0909V80Z" fill="white"/>
<path d="M32.7273 3.63634H29.0909V7.2727H32.7273V3.63634Z" fill="white"/>
<path d="M32.7273 14.5453H29.0909V18.1817H32.7273V14.5453Z" fill="white"/>
<path d="M32.7273 21.818H29.0909V25.4544H32.7273V21.818Z" fill="white"/>
<path d="M32.7273 29.091H29.0909V32.7274H32.7273V29.091Z" fill="white"/>
<path d="M32.7273 54.5453H29.0909V58.1817H32.7273V54.5453Z" fill="white"/>
<path d="M32.7273 58.182H29.0909V61.8183H32.7273V58.182Z" fill="white"/>
<path d="M32.7273 61.818H29.0909V65.4544H32.7273V61.818Z" fill="white"/>
<path d="M32.7273 69.091H29.0909V72.7273H32.7273V69.091Z" fill="white"/>
<path d="M32.7273 72.7273H29.0909V76.3637H32.7273V72.7273Z" fill="white"/>
<path d="M32.7273 76.3636H29.0909V80H32.7273V76.3636Z" fill="white"/>
<path d="M32.7273 80H29.0909V83.6364H32.7273V80Z" fill="white"/>
<path d="M32.7273 83.6364H29.0909V87.2727H32.7273V83.6364Z" fill="white"/>
<path d="M32.7273 87.2727H29.0909V90.909H32.7273V87.2727Z" fill="white"/>
<path d="M32.7273 90.909H29.0909V94.5454H32.7273V90.909Z" fill="white"/>
<path d="M32.7273 98.182H29.0909V101.818H32.7273V98.182Z" fill="white"/>
<path d="M32.7273 101.818H29.0909V105.455H32.7273V101.818Z" fill="white"/>
<path d="M32.7273 109.091H29.0909V112.727H32.7273V109.091Z" fill="white"/>
<path d="M36.3636 0H32.7272V3.63636H36.3636V0Z" fill="white"/>
<path d="M36.3636 7.27267H32.7272V10.909H36.3636V7.27267Z" fill="white"/>
<path d="M36.3636 14.5453H32.7272V18.1817H36.3636V14.5453Z" fill="white"/>
<path d="M36.3636 18.1817H32.7272V21.8181H36.3636V18.1817Z" fill="white"/>
<path d="M36.3636 25.4547H32.7272V29.091H36.3636V25.4547Z" fill="white"/>
<path d="M36.3636 29.091H32.7272V32.7274H36.3636V29.091Z" fill="white"/>
<path d="M36.3636 32.7273H32.7272V36.3637H36.3636V32.7273Z" fill="white"/>
<path d="M36.3636 36.3637H32.7272V40H36.3636V36.3637Z" fill="white"/>
<path d="M36.3636 43.6363H32.7272V47.2727H36.3636V43.6363Z" fill="white"/>
<path d="M36.3636 50.909H32.7272V54.5454H36.3636V50.909Z" fill="white"/>
<path d="M36.3636 58.182H32.7272V61.8183H36.3636V58.182Z" fill="white"/>
<path d="M36.3636 65.4544H32.7272V69.0907H36.3636V65.4544Z" fill="white"/>
<path d="M36.3636 83.6364H32.7272V87.2727H36.3636V83.6364Z" fill="white"/>
<path d="M36.3636 90.909H32.7272V94.5454H36.3636V90.909Z" fill="white"/>
<path d="M36.3636 105.455H32.7272V109.091H36.3636V105.455Z" fill="white"/>
<path d="M36.3636 109.091H32.7272V112.727H36.3636V109.091Z" fill="white"/>
<path d="M36.3636 112.727H32.7272V116.364H36.3636V112.727Z" fill="white"/>
<path d="M40 3.63634H36.3636V7.2727H40V3.63634Z" fill="white"/>
<path d="M40 10.909H36.3636V14.5454H40V10.909Z" fill="white"/>
<path d="M40 18.1817H36.3636V21.8181H40V18.1817Z" fill="white"/>
<path d="M40 21.818H36.3636V25.4544H40V21.818Z" fill="white"/>
<path d="M40 29.091H36.3636V32.7274H40V29.091Z" fill="white"/>
<path d="M40 32.7273H36.3636V36.3637H40V32.7273Z" fill="white"/>
<path d="M40 36.3637H36.3636V40H40V36.3637Z" fill="white"/>
<path d="M40 40H36.3636V43.6364H40V40Z" fill="white"/>
<path d="M40 54.5453H36.3636V58.1817H40V54.5453Z" fill="white"/>
<path d="M40 61.818H36.3636V65.4544H40V61.818Z" fill="white"/>
<path d="M40 76.3636H36.3636V80H40V76.3636Z" fill="white"/>
<path d="M40 83.6364H36.3636V87.2727H40V83.6364Z" fill="white"/>
<path d="M40 105.455H36.3636V109.091H40V105.455Z" fill="white"/>
<path d="M40 112.727H36.3636V116.364H40V112.727Z" fill="white"/>
<path d="M43.6364 0H40V3.63636H43.6364V0Z" fill="white"/>
<path d="M43.6364 3.63634H40V7.2727H43.6364V3.63634Z" fill="white"/>
<path d="M43.6364 14.5453H40V18.1817H43.6364V14.5453Z" fill="white"/>
<path d="M43.6364 25.4547H40V29.091H43.6364V25.4547Z" fill="white"/>
<path d="M43.6364 29.091H40V32.7274H43.6364V29.091Z" fill="white"/>
<path d="M43.6364 32.7273H40V36.3637H43.6364V32.7273Z" fill="white"/>
<path d="M43.6364 40H40V43.6364H43.6364V40Z" fill="white"/>
<path d="M43.6364 43.6363H40V47.2727H43.6364V43.6363Z" fill="white"/>
<path d="M43.6364 50.909H40V54.5454H43.6364V50.909Z" fill="white"/>
<path d="M43.6364 61.818H40V65.4544H43.6364V61.818Z" fill="white"/>
<path d="M43.6364 65.4544H40V69.0907H43.6364V65.4544Z" fill="white"/>
<path d="M43.6364 69.091H40V72.7273H43.6364V69.091Z" fill="white"/>
<path d="M43.6364 72.7273H40V76.3637H43.6364V72.7273Z" fill="white"/>
<path d="M43.6364 76.3636H40V80H43.6364V76.3636Z" fill="white"/>
<path d="M43.6364 80H40V83.6364H43.6364V80Z" fill="white"/>
<path d="M43.6364 90.909H40V94.5454H43.6364V90.909Z" fill="white"/>
<path d="M43.6364 112.727H40V116.364H43.6364V112.727Z" fill="white"/>
<path d="M43.6364 116.364H40V120H43.6364V116.364Z" fill="white"/>
<path d="M47.2727 3.63634H43.6364V7.2727H47.2727V3.63634Z" fill="white"/>
<path d="M47.2727 7.27267H43.6364V10.909H47.2727V7.27267Z" fill="white"/>
<path d="M47.2727 10.909H43.6364V14.5454H47.2727V10.909Z" fill="white"/>
<path d="M47.2727 14.5453H43.6364V18.1817H47.2727V14.5453Z" fill="white"/>
<path d="M47.2727 21.818H43.6364V25.4544H47.2727V21.818Z" fill="white"/>
<path d="M47.2727 25.4547H43.6364V29.091H47.2727V25.4547Z" fill="white"/>
<path d="M47.2727 32.7273H43.6364V36.3637H47.2727V32.7273Z" fill="white"/>
<path d="M47.2727 43.6363H43.6364V47.2727H47.2727V43.6363Z" fill="white"/>
<path d="M47.2727 47.2727H43.6364V50.909H47.2727V47.2727Z" fill="white"/>
<path d="M47.2727 58.182H43.6364V61.8183H47.2727V58.182Z" fill="white"/>
<path d="M47.2727 65.4544H43.6364V69.0907H47.2727V65.4544Z" fill="white"/>
<path d="M47.2727 72.7273H43.6364V76.3637H47.2727V72.7273Z" fill="white"/>
<path d="M47.2727 90.909H43.6364V94.5454H47.2727V90.909Z" fill="white"/>
<path d="M47.2727 94.5453H43.6364V98.1817H47.2727V94.5453Z" fill="white"/>
<path d="M47.2727 98.182H43.6364V101.818H47.2727V98.182Z" fill="white"/>
<path d="M47.2727 101.818H43.6364V105.455H47.2727V101.818Z" fill="white"/>
<path d="M47.2727 105.455H43.6364V109.091H47.2727V105.455Z" fill="white"/>
<path d="M50.9091 3.63634H47.2728V7.2727H50.9091V3.63634Z" fill="white"/>
<path d="M50.9091 7.27267H47.2728V10.909H50.9091V7.27267Z" fill="white"/>
<path d="M50.9091 10.909H47.2728V14.5454H50.9091V10.909Z" fill="white"/>
<path d="M50.9091 29.091H47.2728V32.7274H50.9091V29.091Z" fill="white"/>
<path d="M50.9091 32.7273H47.2728V36.3637H50.9091V32.7273Z" fill="white"/>
<path d="M50.9091 40H47.2728V43.6364H50.9091V40Z" fill="white"/>
<path d="M50.9091 54.5453H47.2728V58.1817H50.9091V54.5453Z" fill="white"/>
<path d="M50.9091 58.182H47.2728V61.8183H50.9091V58.182Z" fill="white"/>
<path d="M50.9091 61.818H47.2728V65.4544H50.9091V61.818Z" fill="white"/>
<path d="M50.9091 69.091H47.2728V72.7273H50.9091V69.091Z" fill="white"/>
<path d="M50.9091 76.3636H47.2728V80H50.9091V76.3636Z" fill="white"/>
<path d="M50.9091 83.6364H47.2728V87.2727H50.9091V83.6364Z" fill="white"/>
<path d="M50.9091 98.182H47.2728V101.818H50.9091V98.182Z" fill="white"/>
<path d="M50.9091 105.455H47.2728V109.091H50.9091V105.455Z" fill="white"/>
<path d="M50.9091 109.091H47.2728V112.727H50.9091V109.091Z" fill="white"/>
<path d="M54.5455 0H50.9091V3.63636H54.5455V0Z" fill="white"/>
<path d="M54.5455 7.27267H50.9091V10.909H54.5455V7.27267Z" fill="white"/>
<path d="M54.5455 10.909H50.9091V14.5454H54.5455V10.909Z" fill="white"/>
<path d="M54.5455 18.1817H50.9091V21.8181H54.5455V18.1817Z" fill="white"/>
<path d="M54.5455 21.818H50.9091V25.4544H54.5455V21.818Z" fill="white"/>
<path d="M54.5455 25.4547H50.9091V29.091H54.5455V25.4547Z" fill="white"/>
<path d="M54.5455 29.091H50.9091V32.7274H54.5455V29.091Z" fill="white"/>
<path d="M54.5455 32.7273H50.9091V36.3637H54.5455V32.7273Z" fill="white"/>
<path d="M54.5455 36.3637H50.9091V40H54.5455V36.3637Z" fill="white"/>
<path d="M54.5455 47.2727H50.9091V50.909H54.5455V47.2727Z" fill="white"/>
<path d="M54.5455 50.909H50.9091V54.5454H54.5455V50.909Z" fill="white"/>
<path d="M54.5455 58.182H50.9091V61.8183H54.5455V58.182Z" fill="white"/>
<path d="M54.5455 61.818H50.9091V65.4544H54.5455V61.818Z" fill="white"/>
<path d="M54.5455 69.091H50.9091V72.7273H54.5455V69.091Z" fill="white"/>
<path d="M54.5455 83.6364H50.9091V87.2727H54.5455V83.6364Z" fill="white"/>
<path d="M54.5455 87.2727H50.9091V90.909H54.5455V87.2727Z" fill="white"/>
<path d="M54.5455 90.909H50.9091V94.5454H54.5455V90.909Z" fill="white"/>
<path d="M54.5455 94.5453H50.9091V98.1817H54.5455V94.5453Z" fill="white"/>
<path d="M54.5455 105.455H50.9091V109.091H54.5455V105.455Z" fill="white"/>
<path d="M54.5455 112.727H50.9091V116.364H54.5455V112.727Z" fill="white"/>
<path d="M58.1818 7.27267H54.5455V10.909H58.1818V7.27267Z" fill="white"/>
<path d="M58.1818 10.909H54.5455V14.5454H58.1818V10.909Z" fill="white"/>
<path d="M58.1818 32.7273H54.5455V36.3637H58.1818V32.7273Z" fill="white"/>
<path d="M58.1818 43.6363H54.5455V47.2727H58.1818V43.6363Z" fill="white"/>
<path d="M58.1818 50.909H54.5455V54.5454H58.1818V50.909Z" fill="white"/>
<path d="M58.1818 54.5453H54.5455V58.1817H58.1818V54.5453Z" fill="white"/>
<path d="M58.1818 58.182H54.5455V61.8183H58.1818V58.182Z" fill="white"/>
<path d="M58.1818 61.818H54.5455V65.4544H58.1818V61.818Z" fill="white"/>
<path d="M58.1818 69.091H54.5455V72.7273H58.1818V69.091Z" fill="white"/>
<path d="M58.1818 72.7273H54.5455V76.3637H58.1818V72.7273Z" fill="white"/>
<path d="M58.1818 76.3636H54.5455V80H58.1818V76.3636Z" fill="white"/>
<path d="M58.1818 83.6364H54.5455V87.2727H58.1818V83.6364Z" fill="white"/>
<path d="M58.1818 90.909H54.5455V94.5454H58.1818V90.909Z" fill="white"/>
<path d="M58.1818 94.5453H54.5455V98.1817H58.1818V94.5453Z" fill="white"/>
<path d="M61.8182 3.63634H58.1818V7.2727H61.8182V3.63634Z" fill="white"/>
<path d="M61.8182 10.909H58.1818V14.5454H61.8182V10.909Z" fill="white"/>
<path d="M61.8182 14.5453H58.1818V18.1817H61.8182V14.5453Z" fill="white"/>
<path d="M61.8182 21.818H58.1818V25.4544H61.8182V21.818Z" fill="white"/>
<path d="M61.8182 29.091H58.1818V32.7274H61.8182V29.091Z" fill="white"/>
<path d="M61.8182 47.2727H58.1818V50.909H61.8182V47.2727Z" fill="white"/>
<path d="M61.8182 50.909H58.1818V54.5454H61.8182V50.909Z" fill="white"/>
<path d="M61.8182 65.4544H58.1818V69.0907H61.8182V65.4544Z" fill="white"/>
<path d="M61.8182 72.7273H58.1818V76.3637H61.8182V72.7273Z" fill="white"/>
<path d="M61.8182 76.3636H58.1818V80H61.8182V76.3636Z" fill="white"/>
<path d="M61.8182 80H58.1818V83.6364H61.8182V80Z" fill="white"/>
<path d="M61.8182 83.6364H58.1818V87.2727H61.8182V83.6364Z" fill="white"/>
<path d="M61.8182 87.2727H58.1818V90.909H61.8182V87.2727Z" fill="white"/>
<path d="M61.8182 94.5453H58.1818V98.1817H61.8182V94.5453Z" fill="white"/>
<path d="M61.8182 101.818H58.1818V105.455H61.8182V101.818Z" fill="white"/>
<path d="M61.8182 112.727H58.1818V116.364H61.8182V112.727Z" fill="white"/>
<path d="M65.4545 25.4547H61.8182V29.091H65.4545V25.4547Z" fill="white"/>
<path d="M65.4545 32.7273H61.8182V36.3637H65.4545V32.7273Z" fill="white"/>
<path d="M65.4545 40H61.8182V43.6364H65.4545V40Z" fill="white"/>
<path d="M65.4545 43.6363H61.8182V47.2727H65.4545V43.6363Z" fill="white"/>
<path d="M65.4545 76.3636H61.8182V80H65.4545V76.3636Z" fill="white"/>
<path d="M65.4545 83.6364H61.8182V87.2727H65.4545V83.6364Z" fill="white"/>
<path d="M65.4545 105.455H61.8182V109.091H65.4545V105.455Z" fill="white"/>
<path d="M65.4545 109.091H61.8182V112.727H65.4545V109.091Z" fill="white"/>
<path d="M65.4545 112.727H61.8182V116.364H65.4545V112.727Z" fill="white"/>
<path d="M69.0909 3.63634H65.4545V7.2727H69.0909V3.63634Z" fill="white"/>
<path d="M69.0909 14.5453H65.4545V18.1817H69.0909V14.5453Z" fill="white"/>
<path d="M69.0909 18.1817H65.4545V21.8181H69.0909V18.1817Z" fill="white"/>
<path d="M69.0909 21.818H65.4545V25.4544H69.0909V21.818Z" fill="white"/>
<path d="M69.0909 32.7273H65.4545V36.3637H69.0909V32.7273Z" fill="white"/>
<path d="M69.0909 36.3637H65.4545V40H69.0909V36.3637Z" fill="white"/>
<path d="M69.0909 54.5453H65.4545V58.1817H69.0909V54.5453Z" fill="white"/>
<path d="M69.0909 61.818H65.4545V65.4544H69.0909V61.818Z" fill="white"/>
<path d="M69.0909 65.4544H65.4545V69.0907H69.0909V65.4544Z" fill="white"/>
<path d="M69.0909 72.7273H65.4545V76.3637H69.0909V72.7273Z" fill="white"/>
<path d="M69.0909 83.6364H65.4545V87.2727H69.0909V83.6364Z" fill="white"/>
<path d="M69.0909 98.182H65.4545V101.818H69.0909V98.182Z" fill="white"/>
<path d="M69.0909 105.455H65.4545V109.091H69.0909V105.455Z" fill="white"/>
<path d="M72.7273 3.63634H69.0909V7.2727H72.7273V3.63634Z" fill="white"/>
<path d="M72.7273 7.27267H69.0909V10.909H72.7273V7.27267Z" fill="white"/>
<path d="M72.7273 14.5453H69.0909V18.1817H72.7273V14.5453Z" fill="white"/>
<path d="M72.7273 25.4547H69.0909V29.091H72.7273V25.4547Z" fill="white"/>
<path d="M72.7273 32.7273H69.0909V36.3637H72.7273V32.7273Z" fill="white"/>
<path d="M72.7273 36.3637H69.0909V40H72.7273V36.3637Z" fill="white"/>
<path d="M72.7273 61.818H69.0909V65.4544H72.7273V61.818Z" fill="white"/>
<path d="M72.7273 80H69.0909V83.6364H72.7273V80Z" fill="white"/>
<path d="M72.7273 83.6364H69.0909V87.2727H72.7273V83.6364Z" fill="white"/>
<path d="M72.7273 87.2727H69.0909V90.909H72.7273V87.2727Z" fill="white"/>
<path d="M72.7273 98.182H69.0909V101.818H72.7273V98.182Z" fill="white"/>
<path d="M72.7273 112.727H69.0909V116.364H72.7273V112.727Z" fill="white"/>
<path d="M76.3636 3.63634H72.7273V7.2727H76.3636V3.63634Z" fill="white"/>
<path d="M76.3636 7.27267H72.7273V10.909H76.3636V7.27267Z" fill="white"/>
<path d="M76.3636 21.818H72.7273V25.4544H76.3636V21.818Z" fill="white"/>
<path d="M76.3636 25.4547H72.7273V29.091H76.3636V25.4547Z" fill="white"/>
<path d="M76.3636 40H72.7273V43.6364H76.3636V40Z" fill="white"/>
<path d="M76.3636 43.6363H72.7273V47.2727H76.3636V43.6363Z" fill="white"/>
<path d="M76.3636 47.2727H72.7273V50.909H76.3636V47.2727Z" fill="white"/>
<path d="M76.3636 54.5453H72.7273V58.1817H76.3636V54.5453Z" fill="white"/>
<path d="M76.3636 80H72.7273V83.6364H76.3636V80Z" fill="white"/>
<path d="M76.3636 83.6364H72.7273V87.2727H76.3636V83.6364Z" fill="white"/>
<path d="M76.3636 94.5453H72.7273V98.1817H76.3636V94.5453Z" fill="white"/>
<path d="M76.3636 101.818H72.7273V105.455H76.3636V101.818Z" fill="white"/>
<path d="M76.3636 105.455H72.7273V109.091H76.3636V105.455Z" fill="white"/>
<path d="M76.3636 116.364H72.7273V120H76.3636V116.364Z" fill="white"/>
<path d="M80 0H76.3636V3.63636H80V0Z" fill="white"/>
<path d="M80 3.63634H76.3636V7.2727H80V3.63634Z" fill="white"/>
<path d="M80 7.27267H76.3636V10.909H80V7.27267Z" fill="white"/>
<path d="M80 32.7273H76.3636V36.3637H80V32.7273Z" fill="white"/>
<path d="M80 36.3637H76.3636V40H80V36.3637Z" fill="white"/>
<path d="M80 40H76.3636V43.6364H80V40Z" fill="white"/>
<path d="M80 43.6363H76.3636V47.2727H80V43.6363Z" fill="white"/>
<path d="M80 50.909H76.3636V54.5454H80V50.909Z" fill="white"/>
<path d="M80 54.5453H76.3636V58.1817H80V54.5453Z" fill="white"/>
<path d="M80 58.182H76.3636V61.8183H80V58.182Z" fill="white"/>
<path d="M80 65.4544H76.3636V69.0907H80V65.4544Z" fill="white"/>
<path d="M80 69.091H76.3636V72.7273H80V69.091Z" fill="white"/>
<path d="M80 72.7273H76.3636V76.3637H80V72.7273Z" fill="white"/>
<path d="M80 76.3636H76.3636V80H80V76.3636Z" fill="white"/>
<path d="M80 83.6364H76.3636V87.2727H80V83.6364Z" fill="white"/>
<path d="M80 87.2727H76.3636V90.909H80V87.2727Z" fill="white"/>
<path d="M80 105.455H76.3636V109.091H80V105.455Z" fill="white"/>
<path d="M80 109.091H76.3636V112.727H80V109.091Z" fill="white"/>
<path d="M80 112.727H76.3636V116.364H80V112.727Z" fill="white"/>
<path d="M83.6364 10.909H80V14.5454H83.6364V10.909Z" fill="white"/>
<path d="M83.6364 21.818H80V25.4544H83.6364V21.818Z" fill="white"/>
<path d="M83.6364 43.6363H80V47.2727H83.6364V43.6363Z" fill="white"/>
<path d="M83.6364 47.2727H80V50.909H83.6364V47.2727Z" fill="white"/>
<path d="M83.6364 50.909H80V54.5454H83.6364V50.909Z" fill="white"/>
<path d="M83.6364 58.182H80V61.8183H83.6364V58.182Z" fill="white"/>
<path d="M83.6364 65.4544H80V69.0907H83.6364V65.4544Z" fill="white"/>
<path d="M83.6364 72.7273H80V76.3637H83.6364V72.7273Z" fill="white"/>
<path d="M83.6364 83.6364H80V87.2727H83.6364V83.6364Z" fill="white"/>
<path d="M83.6364 87.2727H80V90.909H83.6364V87.2727Z" fill="white"/>
<path d="M83.6364 90.909H80V94.5454H83.6364V90.909Z" fill="white"/>
<path d="M83.6364 98.182H80V101.818H83.6364V98.182Z" fill="white"/>
<path d="M83.6364 101.818H80V105.455H83.6364V101.818Z" fill="white"/>
<path d="M83.6364 112.727H80V116.364H83.6364V112.727Z" fill="white"/>
<path d="M87.2727 7.27267H83.6364V10.909H87.2727V7.27267Z" fill="white"/>
<path d="M87.2727 14.5453H83.6364V18.1817H87.2727V14.5453Z" fill="white"/>
<path d="M87.2727 18.1817H83.6364V21.8181H87.2727V18.1817Z" fill="white"/>
<path d="M87.2727 40H83.6364V43.6364H87.2727V40Z" fill="white"/>
<path d="M87.2727 47.2727H83.6364V50.909H87.2727V47.2727Z" fill="white"/>
<path d="M87.2727 50.909H83.6364V54.5454H87.2727V50.909Z" fill="white"/>
<path d="M87.2727 54.5453H83.6364V58.1817H87.2727V54.5453Z" fill="white"/>
<path d="M87.2727 65.4544H83.6364V69.0907H87.2727V65.4544Z" fill="white"/>
<path d="M87.2727 76.3636H83.6364V80H87.2727V76.3636Z" fill="white"/>
<path d="M87.2727 80H83.6364V83.6364H87.2727V80Z" fill="white"/>
<path d="M87.2727 83.6364H83.6364V87.2727H87.2727V83.6364Z" fill="white"/>
<path d="M87.2727 90.909H83.6364V94.5454H87.2727V90.909Z" fill="white"/>
<path d="M87.2727 94.5453H83.6364V98.1817H87.2727V94.5453Z" fill="white"/>
<path d="M87.2727 101.818H83.6364V105.455H87.2727V101.818Z" fill="white"/>
<path d="M87.2727 116.364H83.6364V120H87.2727V116.364Z" fill="white"/>
<path d="M90.9091 0H87.2727V3.63636H90.9091V0Z" fill="white"/>
<path d="M90.9091 3.63634H87.2727V7.2727H90.9091V3.63634Z" fill="white"/>
<path d="M90.9091 14.5453H87.2727V18.1817H90.9091V14.5453Z" fill="white"/>
<path d="M90.9091 21.818H87.2727V25.4544H90.9091V21.818Z" fill="white"/>
<path d="M90.9091 25.4547H87.2727V29.091H90.9091V25.4547Z" fill="white"/>
<path d="M90.9091 29.091H87.2727V32.7274H90.9091V29.091Z" fill="white"/>
<path d="M90.9091 32.7273H87.2727V36.3637H90.9091V32.7273Z" fill="white"/>
<path d="M90.9091 36.3637H87.2727V40H90.9091V36.3637Z" fill="white"/>
<path d="M90.9091 40H87.2727V43.6364H90.9091V40Z" fill="white"/>
<path d="M90.9091 43.6363H87.2727V47.2727H90.9091V43.6363Z" fill="white"/>
<path d="M90.9091 47.2727H87.2727V50.909H90.9091V47.2727Z" fill="white"/>
<path d="M90.9091 54.5453H87.2727V58.1817H90.9091V54.5453Z" fill="white"/>
<path d="M90.9091 58.182H87.2727V61.8183H90.9091V58.182Z" fill="white"/>
<path d="M90.9091 69.091H87.2727V72.7273H90.9091V69.091Z" fill="white"/>
<path d="M90.9091 72.7273H87.2727V76.3637H90.9091V72.7273Z" fill="white"/>
<path d="M90.9091 76.3636H87.2727V80H90.9091V76.3636Z" fill="white"/>
<path d="M90.9091 80H87.2727V83.6364H90.9091V80Z" fill="white"/>
<path d="M90.9091 87.2727H87.2727V90.909H90.9091V87.2727Z" fill="white"/>
<path d="M90.9091 90.909H87.2727V94.5454H90.9091V90.909Z" fill="white"/>
<path d="M90.9091 94.5453H87.2727V98.1817H90.9091V94.5453Z" fill="white"/>
<path d="M90.9091 98.182H87.2727V101.818H90.9091V98.182Z" fill="white"/>
<path d="M90.9091 101.818H87.2727V105.455H90.9091V101.818Z" fill="white"/>
<path d="M90.9091 116.364H87.2727V120H90.9091V116.364Z" fill="white"/>
<path d="M94.5455 29.091H90.9091V32.7274H94.5455V29.091Z" fill="white"/>
<path d="M94.5455 32.7273H90.9091V36.3637H94.5455V32.7273Z" fill="white"/>
<path d="M94.5455 36.3637H90.9091V40H94.5455V36.3637Z" fill="white"/>
<path d="M94.5455 43.6363H90.9091V47.2727H94.5455V43.6363Z" fill="white"/>
<path d="M94.5455 47.2727H90.9091V50.909H94.5455V47.2727Z" fill="white"/>
<path d="M94.5455 50.909H90.9091V54.5454H94.5455V50.909Z" fill="white"/>
<path d="M94.5455 58.182H90.9091V61.8183H94.5455V58.182Z" fill="white"/>
<path d="M94.5455 61.818H90.9091V65.4544H94.5455V61.818Z" fill="white"/>
<path d="M94.5455 87.2727H90.9091V90.909H94.5455V87.2727Z" fill="white"/>
<path d="M94.5455 101.818H90.9091V105.455H94.5455V101.818Z" fill="white"/>
<path d="M94.5455 109.091H90.9091V112.727H94.5455V109.091Z" fill="white"/>
<path d="M94.5455 112.727H90.9091V116.364H94.5455V112.727Z" fill="white"/>
<path d="M98.1818 32.7273H94.5455V36.3637H98.1818V32.7273Z" fill="white"/>
<path d="M98.1818 43.6363H94.5455V47.2727H98.1818V43.6363Z" fill="white"/>
<path d="M98.1818 61.818H94.5455V65.4544H98.1818V61.818Z" fill="white"/>
<path d="M98.1818 76.3636H94.5455V80H98.1818V76.3636Z" fill="white"/>
<path d="M98.1818 80H94.5455V83.6364H98.1818V80Z" fill="white"/>
<path d="M98.1818 87.2727H94.5455V90.909H98.1818V87.2727Z" fill="white"/>
<path d="M98.1818 94.5453H94.5455V98.1817H98.1818V94.5453Z" fill="white"/>
<path d="M98.1818 101.818H94.5455V105.455H98.1818V101.818Z" fill="white"/>
<path d="M98.1818 105.455H94.5455V109.091H98.1818V105.455Z" fill="white"/>
<path d="M98.1818 112.727H94.5455V116.364H98.1818V112.727Z" fill="white"/>
<path d="M101.818 36.3637H98.1818V40H101.818V36.3637Z" fill="white"/>
<path d="M101.818 43.6363H98.1818V47.2727H101.818V43.6363Z" fill="white"/>
<path d="M101.818 58.182H98.1818V61.8183H101.818V58.182Z" fill="white"/>
<path d="M101.818 61.818H98.1818V65.4544H101.818V61.818Z" fill="white"/>
<path d="M101.818 65.4544H98.1818V69.0907H101.818V65.4544Z" fill="white"/>
<path d="M101.818 72.7273H98.1818V76.3637H101.818V72.7273Z" fill="white"/>
<path d="M101.818 76.3636H98.1818V80H101.818V76.3636Z" fill="white"/>
<path d="M101.818 87.2727H98.1818V90.909H101.818V87.2727Z" fill="white"/>
<path d="M101.818 101.818H98.1818V105.455H101.818V101.818Z" fill="white"/>
<path d="M101.818 112.727H98.1818V116.364H101.818V112.727Z" fill="white"/>
<path d="M105.455 29.091H101.818V32.7274H105.455V29.091Z" fill="white"/>
<path d="M105.455 40H101.818V43.6364H105.455V40Z" fill="white"/>
<path d="M105.455 43.6363H101.818V47.2727H105.455V43.6363Z" fill="white"/>
<path d="M105.455 61.818H101.818V65.4544H105.455V61.818Z" fill="white"/>
<path d="M105.455 65.4544H101.818V69.0907H105.455V65.4544Z" fill="white"/>
<path d="M105.455 72.7273H101.818V76.3637H105.455V72.7273Z" fill="white"/>
<path d="M105.455 87.2727H101.818V90.909H105.455V87.2727Z" fill="white"/>
<path d="M105.455 90.909H101.818V94.5454H105.455V90.909Z" fill="white"/>
<path d="M105.455 94.5453H101.818V98.1817H105.455V94.5453Z" fill="white"/>
<path d="M105.455 98.182H101.818V101.818H105.455V98.182Z" fill="white"/>
<path d="M105.455 101.818H101.818V105.455H105.455V101.818Z" fill="white"/>
<path d="M105.455 105.455H101.818V109.091H105.455V105.455Z" fill="white"/>
<path d="M109.091 36.3637H105.455V40H109.091V36.3637Z" fill="white"/>
<path d="M109.091 47.2727H105.455V50.909H109.091V47.2727Z" fill="white"/>
<path d="M109.091 50.909H105.455V54.5454H109.091V50.909Z" fill="white"/>
<path d="M109.091 54.5453H105.455V58.1817H109.091V54.5453Z" fill="white"/>
<path d="M109.091 61.818H105.455V65.4544H109.091V61.818Z" fill="white"/>
<path d="M109.091 69.091H105.455V72.7273H109.091V69.091Z" fill="white"/>
<path d="M109.091 80H105.455V83.6364H109.091V80Z" fill="white"/>
<path d="M109.091 83.6364H105.455V87.2727H109.091V83.6364Z" fill="white"/>
<path d="M109.091 87.2727H105.455V90.909H109.091V87.2727Z" fill="white"/>
<path d="M109.091 94.5453H105.455V98.1817H109.091V94.5453Z" fill="white"/>
<path d="M109.091 98.182H105.455V101.818H109.091V98.182Z" fill="white"/>
<path d="M109.091 101.818H105.455V105.455H109.091V101.818Z" fill="white"/>
<path d="M109.091 105.455H105.455V109.091H109.091V105.455Z" fill="white"/>
<path d="M109.091 112.727H105.455V116.364H109.091V112.727Z" fill="white"/>
<path d="M112.727 36.3637H109.091V40H112.727V36.3637Z" fill="white"/>
<path d="M112.727 40H109.091V43.6364H112.727V40Z" fill="white"/>
<path d="M112.727 43.6363H109.091V47.2727H112.727V43.6363Z" fill="white"/>
<path d="M112.727 47.2727H109.091V50.909H112.727V47.2727Z" fill="white"/>
<path d="M112.727 61.818H109.091V65.4544H112.727V61.818Z" fill="white"/>
<path d="M112.727 65.4544H109.091V69.0907H112.727V65.4544Z" fill="white"/>
<path d="M112.727 69.091H109.091V72.7273H112.727V69.091Z" fill="white"/>
<path d="M112.727 76.3636H109.091V80H112.727V76.3636Z" fill="white"/>
<path d="M112.727 83.6364H109.091V87.2727H112.727V83.6364Z" fill="white"/>
<path d="M112.727 94.5453H109.091V98.1817H112.727V94.5453Z" fill="white"/>
<path d="M112.727 98.182H109.091V101.818H112.727V98.182Z" fill="white"/>
<path d="M112.727 101.818H109.091V105.455H112.727V101.818Z" fill="white"/>
<path d="M112.727 105.455H109.091V109.091H112.727V105.455Z" fill="white"/>
<path d="M116.364 29.091H112.727V32.7274H116.364V29.091Z" fill="white"/>
<path d="M116.364 32.7273H112.727V36.3637H116.364V32.7273Z" fill="white"/>
<path d="M116.364 40H112.727V43.6364H116.364V40Z" fill="white"/>
<path d="M116.364 50.909H112.727V54.5454H116.364V50.909Z" fill="white"/>
<path d="M116.364 58.182H112.727V61.8183H116.364V58.182Z" fill="white"/>
<path d="M116.364 61.818H112.727V65.4544H116.364V61.818Z" fill="white"/>
<path d="M116.364 65.4544H112.727V69.0907H116.364V65.4544Z" fill="white"/>
<path d="M116.364 69.091H112.727V72.7273H116.364V69.091Z" fill="white"/>
<path d="M116.364 72.7273H112.727V76.3637H116.364V72.7273Z" fill="white"/>
<path d="M116.364 76.3636H112.727V80H116.364V76.3636Z" fill="white"/>
<path d="M116.364 83.6364H112.727V87.2727H116.364V83.6364Z" fill="white"/>
<path d="M116.364 87.2727H112.727V90.909H116.364V87.2727Z" fill="white"/>
<path d="M120 32.7273H116.364V36.3637H120V32.7273Z" fill="white"/>
<path d="M120 36.3637H116.364V40H120V36.3637Z" fill="white"/>
<path d="M120 47.2727H116.364V50.909H120V47.2727Z" fill="white"/>
<path d="M120 50.909H116.364V54.5454H120V50.909Z" fill="white"/>
<path d="M120 54.5453H116.364V58.1817H120V54.5453Z" fill="white"/>
<path d="M120 72.7273H116.364V76.3637H120V72.7273Z" fill="white"/>
<path d="M120 76.3636H116.364V80H120V76.3636Z" fill="white"/>
<path d="M120 80H116.364V83.6364H120V80Z" fill="white"/>
<path d="M120 83.6364H116.364V87.2727H120V83.6364Z" fill="white"/>
<path d="M120 87.2727H116.364V90.909H120V87.2727Z" fill="white"/>
<path d="M120 90.909H116.364V94.5454H120V90.909Z" fill="white"/>
<path d="M120 116.364H116.364V120H120V116.364Z" fill="white"/>
<path fill-rule="evenodd" clip-rule="evenodd" d="M0 9.09091V16.3636C0 18.7747 0.957789 21.087 2.66267 22.7919C4.36754 24.4968 6.67985 25.4545 9.09091 25.4545H16.3636C18.7747 25.4545 21.087 24.4968 22.7919 22.7919C24.4968 21.087 25.4545 18.7747 25.4545 16.3636V9.09091C25.4545 6.67985 24.4968 4.36754 22.7919 2.66267C21.087 0.957789 18.7747 0 16.3636 0H9.09091C6.67985 0 4.36754 0.957789 2.66267 2.66267C0.957789 4.36754 0 6.67985 0 9.09091ZM9.09091 3.63636H16.3636C17.8103 3.63636 19.1977 4.21104 20.2206 5.23396C21.2435 6.25689 21.8182 7.64427 21.8182 9.09091V16.3636C21.8182 17.8103 21.2435 19.1977 20.2206 20.2206C19.1977 21.2435 17.8103 21.8182 16.3636 21.8182H9.09091C7.64427 21.8182 6.25689 21.2435 5.23396 20.2206C4.21104 19.1977 3.63636 17.8103 3.63636 16.3636V9.09091C3.63636 7.64427 4.21104 6.25689 5.23396 5.23396C6.25689 4.21104 7.64427 3.63636 9.09091 3.63636Z" fill="white"/>
<path d="M18.1818 7.27267H7.27271V18.1818H18.1818V7.27267Z" fill="white"/>
<path fill-rule="evenodd" clip-rule="evenodd" d="M110.909 0L103.636 0C101.225 0 98.913 0.957786 97.2081 2.66266C95.5032 4.36754 94.5455 6.67985 94.5455 9.09091V16.3636C94.5455 18.7747 95.5032 21.087 97.2081 22.7919C98.913 24.4968 101.225 25.4545 103.636 25.4545H110.909C113.32 25.4545 115.632 24.4968 117.337 22.7919C119.042 21.087 120 18.7747 120 16.3636V9.09091C120 6.67985 119.042 4.36754 117.337 2.66266C115.632 0.957786 113.32 0 110.909 0ZM116.364 9.09091V16.3636C116.364 17.8103 115.789 19.1977 114.766 20.2206C113.743 21.2435 112.356 21.8182 110.909 21.8182H103.636C102.19 21.8182 100.802 21.2435 99.7794 20.2206C98.7565 19.1977 98.1818 17.8103 98.1818 16.3636V9.09091C98.1818 7.64427 98.7565 6.25689 99.7794 5.23396C100.802 4.21104 102.19 3.63636 103.636 3.63636L110.909 3.63636C112.356 3.63636 113.743 4.21104 114.766 5.23396C115.789 6.25689 116.364 7.64427 116.364 9.09091Z" fill="white"/>
<path d="M112.727 18.1818V7.27267L101.818 7.27267V18.1818H112.727Z" fill="white"/>
<path fill-rule="evenodd" clip-rule="evenodd" d="M9.09091 120H16.3636C18.7747 120 21.087 119.042 22.7919 117.337C24.4968 115.632 25.4545 113.32 25.4545 110.909V103.636C25.4545 101.225 24.4968 98.913 22.7919 97.2081C21.087 95.5032 18.7747 94.5455 16.3636 94.5455H9.09091C6.67985 94.5455 4.36754 95.5032 2.66266 97.2081C0.957786 98.913 0 101.225 0 103.636L0 110.909C0 113.32 0.957786 115.632 2.66266 117.337C4.36754 119.042 6.67985 120 9.09091 120ZM3.63636 110.909L3.63636 103.636C3.63636 102.19 4.21104 100.802 5.23396 99.7794C6.25689 98.7565 7.64427 98.1818 9.09091 98.1818H16.3636C17.8103 98.1818 19.1977 98.7565 20.2206 99.7794C21.2435 100.802 21.8182 102.19 21.8182 103.636V110.909C21.8182 112.356 21.2435 113.743 20.2206 114.766C19.1977 115.789 17.8103 116.364 16.3636 116.364H9.09091C7.64427 116.364 6.25689 115.789 5.23396 114.766C4.21104 113.743 3.63636 112.356 3.63636 110.909Z" fill="white"/>
<path d="M7.27271 101.818L7.27271 112.727H18.1818V101.818H7.27271Z" fill="white"/>
</mask>
<g mask="url(#mask0_791_5)">
<path d="M124.935 -4.93517H-4.9351V124.935H124.935V-4.93517Z" fill="black"/>
</g>
</svg>
