<svg xmlns:xlink="http://www.w3.org/1999/xlink" xmlns="http://www.w3.org/2000/svg" aria-hidden="true" class="aFueyDx41IE-" focusable="false" role="presentation" viewBox="0 0 24 24" style="font-size: 24px;" width="1000"  height="1000" ><g clip-path="url(#a)" fill="#FFFFFF"><path fill="#0D1E30" d="M12 24c6.627 0 12-5.373 12-12S18.627 0 12 0 0 5.373 0 12s5.373 12 12 12"></path><g filter="url(#b)" fill="#FFFFFF"><path fill="#000" d="M11.794 4.545c.359-.185.798.243.607.596-.111.288-.532.365-.747.145-.227-.21-.153-.627.14-.742v.001m-3.866.41c.218-.089.495.107.472.342.023.254-.292.441-.515.32-.295-.112-.261-.583.043-.663m7.918.67c-.341-.041-.395-.57-.068-.676.255-.121.49.107.527.345-.054.203-.227.389-.459.33m-7.039.948c.366-.227.886.111.83.529-.019.42-.587.665-.908.38-.311-.224-.264-.737.078-.909m5.573.241c.162-.412.822-.426 1.008-.024.184.313-.042.701-.368.807-.433.08-.843-.38-.64-.783m-3.052.76c-.004-.355.325-.62.668-.644.227.045.475.14.572.366.183.312.02.74-.307.883-.15.083-.328.052-.492.042-.25-.12-.46-.357-.441-.647m-5.75.518c.334-.203.784.165.658.522-.07.308-.491.433-.732.237-.257-.185-.216-.628.075-.76m12.347-.002c.283-.216.75.032.715.383.02.32-.384.563-.665.398-.309-.137-.341-.605-.05-.78m-4.98.638a1.127 1.127 0 0 1 1.287.443c.351.5.165 1.262-.38 1.55-.564.34-1.389.052-1.598-.569-.236-.555.109-1.25.69-1.424h.001m-2.74.055c.518-.24 1.214-.039 1.464.482.294.507.067 1.212-.459 1.474-.526.295-1.27.071-1.524-.472-.285-.527-.032-1.242.52-1.484m-2.742.922c.04-.328.354-.542.67-.564a.735.735 0 0 1 .653.643c-.022.337-.287.666-.65.664-.4.034-.75-.357-.673-.743m8.101-.492c.41-.235.98.106.962.57.027.491-.603.837-1.01.549-.425-.24-.392-.915.048-1.119m-6.472 1.73c.478-.13 1.027.093 1.262.526a1.085 1.085 0 0 1-.248 1.364c-.513.469-1.46.28-1.732-.36-.314-.588.067-1.375.717-1.53m5.195-.002c.465-.131 1.013.045 1.263.463.332.478.174 1.19-.319 1.498-.518.358-1.317.17-1.602-.389-.345-.578.002-1.396.658-1.572m-8.28.544c.414-.153.873.296.705.7-.102.368-.63.504-.902.233-.318-.255-.2-.821.197-.932Zm11.227.587a.627.627 0 0 1 .59-.655c.284.044.56.27.537.573.027.402-.465.674-.812.486-.163-.082-.247-.247-.316-.404M3.97 11.685c.249-.107.557.105.5.377-.014.309-.476.428-.646.17-.15-.18-.06-.455.146-.548v.001m15.711-.007c.176-.122.458-.034.527.167.117.221-.099.522-.35.486-.355.031-.469-.499-.177-.653m-9.237 1.48c.655-.167 1.36.37 1.364 1.035.043.671-.652 1.266-1.322 1.112-.52-.083-.927-.575-.91-1.09-.001-.494.377-.953.867-1.057m2.596 0c.665-.184 1.391.364 1.38 1.043.036.659-.637 1.234-1.294 1.103-.619-.078-1.075-.747-.902-1.338.087-.393.422-.712.816-.81v.001m-5.007.408c.46-.077.893.427.706.858-.137.459-.815.583-1.115.209-.35-.36-.088-1.017.409-1.067m7.615.02c.412-.17.915.18.884.619.016.482-.606.815-1.007.533-.456-.252-.372-.997.123-1.152m2.129 2.1c-.16-.294.131-.685.465-.63.165-.003.281.125.387.233.022.175.059.383-.09.517-.2.25-.653.179-.762-.12m-12.201-.549c.311-.203.759.1.689.458-.038.317-.443.498-.71.318-.286-.163-.275-.627.021-.776Zm6.145.662c.407-.176.926.173.887.614.03.488-.611.825-1.01.532-.442-.25-.368-.99.123-1.146m-2.846.654c.347-.18.812.13.78.513.01.313-.3.58-.615.534-.26-.006-.43-.236-.513-.454.004-.238.104-.502.348-.593m5.765.006c.357-.218.864.094.83.502.009.428-.564.7-.896.42-.321-.22-.282-.747.066-.922m1.002 2.437c-.159-.235.028-.52.285-.573.208.04.428.194.384.43-.03.32-.506.418-.669.144m-7.958-.204c.063-.188.216-.373.44-.325.327.023.424.508.138.657-.257.17-.555-.063-.578-.332m3.84.215c.063-.278.426-.412.666-.265.16.067.206.242.246.39a6.602 6.602 0 0 0-.06.233c-.098.113-.225.228-.388.224-.304.036-.578-.303-.465-.582h.001"></path></g><path fill="#FFFFFF" d="M11.794 4.545c.359-.185.798.243.607.596-.111.288-.532.365-.747.145-.227-.21-.153-.627.14-.742v.001m-3.866.41c.218-.089.495.107.472.342.023.254-.292.441-.515.32-.295-.112-.261-.583.043-.663m7.918.67c-.341-.041-.395-.57-.068-.676.255-.121.49.107.527.345-.054.203-.227.389-.459.33m-7.039.948c.366-.227.886.111.83.529-.019.42-.587.665-.908.38-.311-.224-.264-.737.078-.909m5.573.241c.162-.412.822-.426 1.008-.024.184.313-.042.701-.368.807-.433.08-.843-.38-.64-.783m-3.052.76c-.004-.355.325-.62.668-.644.227.045.475.14.572.366.183.312.02.74-.307.883-.15.083-.328.052-.492.042-.25-.12-.46-.357-.441-.647m-5.75.518c.334-.203.784.165.658.522-.07.308-.491.433-.732.237-.257-.185-.216-.628.075-.76m12.347-.002c.283-.216.75.032.715.383.02.32-.384.563-.665.398-.309-.137-.341-.605-.05-.78m-4.98.638a1.127 1.127 0 0 1 1.287.443c.351.5.165 1.262-.38 1.55-.564.34-1.389.052-1.598-.569-.236-.555.109-1.25.69-1.424h.001m-2.74.055c.518-.24 1.214-.039 1.464.482.294.507.067 1.212-.459 1.474-.526.295-1.27.071-1.524-.472-.285-.527-.032-1.242.52-1.484m-2.742.922c.04-.328.354-.542.67-.564a.735.735 0 0 1 .653.643c-.022.337-.287.666-.65.664-.4.034-.75-.357-.673-.743m8.101-.492c.41-.235.98.106.962.57.027.491-.603.837-1.01.549-.425-.24-.392-.915.048-1.119m-6.472 1.73c.478-.13 1.027.093 1.262.526a1.085 1.085 0 0 1-.248 1.364c-.513.469-1.46.28-1.732-.36-.314-.588.067-1.375.717-1.53m5.195-.002c.465-.131 1.013.045 1.263.463.332.478.174 1.19-.319 1.498-.518.358-1.317.17-1.602-.389-.345-.578.002-1.396.658-1.572m-8.28.544c.414-.153.873.296.705.7-.102.368-.63.504-.902.233-.318-.255-.2-.821.197-.932Zm11.227.587a.627.627 0 0 1 .59-.655c.284.044.56.27.537.573.027.402-.465.674-.812.486-.163-.082-.247-.247-.316-.404M3.97 11.685c.249-.107.557.105.5.377-.014.309-.476.428-.646.17-.15-.18-.06-.455.146-.548v.001m15.711-.007c.176-.122.458-.034.527.167.117.221-.099.522-.35.486-.355.031-.469-.499-.177-.653m-9.237 1.48c.655-.167 1.36.37 1.364 1.035.043.671-.652 1.266-1.322 1.112-.52-.083-.927-.575-.91-1.09-.001-.494.377-.953.867-1.057m2.596 0c.665-.184 1.391.364 1.38 1.043.036.659-.637 1.234-1.294 1.103-.619-.078-1.075-.747-.902-1.338.087-.393.422-.712.816-.81v.001m-5.007.408c.46-.077.893.427.706.858-.137.459-.815.583-1.115.209-.35-.36-.088-1.017.409-1.067m7.615.02c.412-.17.915.18.884.619.016.482-.606.815-1.007.533-.456-.252-.372-.997.123-1.152m2.129 2.1c-.16-.294.131-.685.465-.63.165-.003.281.125.387.233.022.175.059.383-.09.517-.2.25-.653.179-.762-.12m-12.201-.549c.311-.203.759.1.689.458-.038.317-.443.498-.71.318-.286-.163-.275-.627.021-.776Zm6.145.662c.407-.176.926.173.887.614.03.488-.611.825-1.01.532-.442-.25-.368-.99.123-1.146m-2.846.654c.347-.18.812.13.78.513.01.313-.3.58-.615.534-.26-.006-.43-.236-.513-.454.004-.238.104-.502.348-.593m5.765.006c.357-.218.864.094.83.502.009.428-.564.7-.896.42-.321-.22-.282-.747.066-.922m1.002 2.437c-.159-.235.028-.52.285-.573.208.04.428.194.384.43-.03.32-.506.418-.669.144m-7.958-.204c.063-.188.216-.373.44-.325.327.023.424.508.138.657-.257.17-.555-.063-.578-.332m3.84.215c.063-.278.426-.412.666-.265.16.067.206.242.246.39a6.602 6.602 0 0 0-.06.233c-.098.113-.225.228-.388.224-.304.036-.578-.303-.465-.582h.001"></path></g><defs><clipPath id="a"><path fill="#fff" d="M0 0h24v24H0z"></path></clipPath><filter id="b" width="18.491" height="16.992" x="2.75" y="4" color-interpolation-filters="sRGB" filterUnits="userSpaceOnUse"><feFlood flood-opacity="0" result="BackgroundImageFix"></feFlood><feColorMatrix in="SourceAlpha" result="hardAlpha" values="0 0 0 0 0 0 0 0 0 0 0 0 0 0 0 0 0 0 127 0"></feColorMatrix><feOffset dy="0.5"></feOffset><feGaussianBlur stdDeviation="0.5"></feGaussianBlur><feColorMatrix values="0 0 0 0 0 0 0 0 0 0 0 0 0 0 0 0 0 0 0.204257 0"></feColorMatrix><feBlend in2="BackgroundImageFix" result="effect1_dropShadow_141_112695"></feBlend><feBlend in="SourceGraphic" in2="effect1_dropShadow_141_112695" result="shape"></feBlend></filter></defs></svg>