<svg xmlns:xlink="http://www.w3.org/1999/xlink" xmlns="http://www.w3.org/2000/svg" aria-hidden="true" class="aFueyDx41IE-" focusable="false" role="presentation" viewBox="0 0 24 24" style="font-size: 24px;" width="1000"  height="1000" ><g clip-path="url(#a)" fill="#FFFFFF"><path fill="#23292F" d="M12 24c6.627 0 12-5.373 12-12S18.627 0 12 0 0 5.373 0 12s5.373 12 12 12"></path><path fill="#FFFFFF" d="M17.303 6h2.167l-4.511 4.468a4.216 4.216 0 0 1-5.918 0L4.526 6h2.172l3.427 3.392a2.667 2.667 0 0 0 3.747 0L17.302 6M6.67 18.422H4.5l4.541-4.494a4.216 4.216 0 0 1 5.918 0l4.541 4.494h-2.171L13.875 15a2.667 2.667 0 0 0-3.747 0L6.67 18.422h.001Z"></path></g><defs><clipPath id="a"><path fill="#fff" d="M0 0h24v24H0z"></path></clipPath></defs></svg>