<svg xmlns:xlink="http://www.w3.org/1999/xlink" xmlns="http://www.w3.org/2000/svg" aria-hidden="true" class="aFueyDx41IE-" focusable="false" role="presentation" viewBox="0 0 24 24" style="font-size: 24px;" width="1000"  height="1000" ><g clip-path="url(#a)" fill="#FFFFFF"><path fill="#627EEA" d="M12 24c6.627 0 12-5.373 12-12S18.627 0 12 0 0 5.373 0 12s5.373 12 12 12"></path><path fill="#FFFFFF" fill-opacity="0.602" d="M12.374 3v6.653l5.622 2.512L12.374 3"></path><path fill="#FFFFFF" d="M12.374 3 6.75 12.165l5.624-2.512V3"></path><path fill="#FFFFFF" fill-opacity="0.602" d="M12.374 16.476v4.52L18 13.212l-5.626 3.264"></path><path fill="#FFFFFF" d="M12.374 20.996v-4.52L6.75 13.211l5.624 7.784"></path><path fill="#FFFFFF" fill-opacity="0.2" d="m12.374 15.43 5.622-3.265-5.622-2.511v5.776"></path><path fill="#FFFFFF" fill-opacity="0.602" d="m6.75 12.165 5.624 3.265V9.654z"></path></g><defs><clipPath id="a"><path fill="#fff" d="M0 0h24v24H0z"></path></clipPath></defs></svg>