<svg xmlns:xlink="http://www.w3.org/1999/xlink" xmlns="http://www.w3.org/2000/svg" aria-hidden="true" class="aFueyDx41IE-" focusable="false" role="presentation" viewBox="0 0 24 24" style="font-size: 24px;" width="1000"  height="1000" ><g clip-path="url(#a)" fill="#FFFFFF"><path fill="#66F9A1" d="M12 24c6.627 0 12-5.373 12-12S18.627 0 12 0 0 5.373 0 12s5.373 12 12 12"></path><path fill="#000" d="M7.444 14.765a.442.442 0 0 1 .311-.127H18.53a.217.217 0 0 1 .155.373l-2.129 2.11a.443.443 0 0 1-.31.129H5.47a.218.218 0 0 1-.156-.373l2.129-2.112m0-7.887a.443.443 0 0 1 .311-.128H18.53c.195 0 .294.236.155.373l-2.129 2.112a.443.443 0 0 1-.31.127H5.47a.218.218 0 0 1-.156-.373l2.129-2.112m9.112 3.918a.442.442 0 0 0-.31-.127H5.47a.218.218 0 0 0-.156.373l2.129 2.111a.443.443 0 0 0 .311.128H18.53a.218.218 0 0 0 .155-.373l-2.129-2.112"></path></g><defs><clipPath id="a"><path fill="#fff" d="M0 0h24v24H0z"></path></clipPath></defs></svg>